<svg width="41" height="41" viewBox="0 0 41 41" fill="none" xmlns="http://www.w3.org/2000/svg">
<path d="M7.76562 22.6406C9.80729 24.6823 12.2865 25.7031 15.2031 25.7031C18.1198 25.7031 20.599 24.6823 22.6406 22.6406C24.6823 20.599 25.7031 18.1198 25.7031 15.2031C25.7031 12.2865 24.6823 9.80729 22.6406 7.76562C20.599 5.72396 18.1198 4.70312 15.2031 4.70312C12.2865 4.70312 9.80729 5.72396 7.76562 7.76562C5.72396 9.80729 4.70312 12.2865 4.70312 15.2031C4.70312 18.1198 5.72396 20.599 7.76562 22.6406ZM29.2031 25.7031L40.7969 37.2969L37.2969 40.7969L25.7031 29.2031V27.3438L25.0469 26.6875C22.276 29.0938 18.9948 30.2969 15.2031 30.2969C10.974 30.2969 7.36458 28.8385 4.375 25.9219C1.45833 23.0052 0 19.4323 0 15.2031C0 10.974 1.45833 7.40104 4.375 4.48438C7.36458 1.49479 10.974 0 15.2031 0C19.4323 0 23.0052 1.49479 25.9219 4.48438C28.8385 7.40104 30.2969 10.974 30.2969 15.2031C30.2969 16.7344 29.9323 18.4844 29.2031 20.4531C28.474 22.349 27.6354 23.8802 26.6875 25.0469L27.3438 25.7031H29.2031Z" fill="#F05A28"/>
</svg>
